<svg xmlns="http://www.w3.org/2000/svg" version="1.1" xmlns:xlink="http://www.w3.org/1999/xlink" xmlns:svgjs="http://svgjs.dev/svgjs" width="1000" height="305" viewBox="0 0 1000 305"><g transform="matrix(1,0,0,1,-0.6060606060606233,0.14402415477016461)"><svg viewBox="0 0 396 121" data-background-color="#ffffff" preserveAspectRatio="xMidYMid meet" height="305" width="1000" xmlns="http://www.w3.org/2000/svg" xmlns:xlink="http://www.w3.org/1999/xlink"><g id="tight-bounds" transform="matrix(1,0,0,1,0.2400000000000091,-0.057137451564557296)"><svg viewBox="0 0 395.52 121.1141862085929" height="121.1141862085929" width="395.52"><g><svg viewBox="0 0 691.5167235818226 211.75284492881505" height="121.1141862085929" width="395.52"><g transform="matrix(1,0,0,1,295.9967235818225,16.663755089274673)"><svg viewBox="0 0 395.52000000000004 178.4253347502657" height="178.4253347502657" width="395.52000000000004"><g><svg viewBox="0 0 395.52000000000004 178.4253347502657" height="178.4253347502657" width="395.52000000000004"><g><svg viewBox="0 0 395.52000000000004 178.4253347502657" height="178.4253347502657" width="395.52000000000004"><g transform="matrix(1,0,0,1,0,0)"><svg width="395.52000000000004" viewBox="1.350000023841858 -35.5 95.84000396728516 42.45000076293945" height="178.4253347502657" data-palette-color="#471aa0"><g class="undefined-text-0" data-fill-palette-color="primary" id="text-0"><path d="M16 6.95L16 6.95Q13.2 6.95 11.55 5.25 9.9 3.55 9-0.2L9-0.2 14.2-1.35Q14.5 1.1 15.08 2.13 15.65 3.15 16.9 3.15L16.9 3.15Q17.6 3.15 18.43 2.98 19.25 2.8 20 2.3L20 2.3Q20.35 2.8 20.5 3.55 20.65 4.3 20.65 4.75L20.65 4.75Q20.65 5.65 19.83 6.13 19 6.6 17.93 6.78 16.85 6.95 16 6.95ZM10.35 0.5L10.35 0.5Q7.9 0.5 6.2-0.3 4.5-1.1 3.43-3.15 2.35-5.2 1.85-8.72 1.35-12.25 1.35-17.7L1.35-17.7Q1.35-24.4 2.4-28.28 3.45-32.15 5.58-33.83 7.7-35.5 10.9-35.5L10.9-35.5Q13.35-35.5 15.05-34.65 16.75-33.8 17.8-31.8 18.85-29.8 19.33-26.4 19.8-23 19.8-17.85L19.8-17.85Q19.8-10.9 18.8-6.9 17.8-2.9 15.73-1.2 13.65 0.5 10.35 0.5ZM10.55-4.2L10.55-4.2Q12.2-4.2 13.1-5.55 14-6.9 14.4-9.9 14.8-12.9 14.8-17.75L14.8-17.75Q14.8-22.55 14.48-25.4 14.15-28.25 13.3-29.53 12.45-30.8 10.8-30.8L10.8-30.8Q9.25-30.8 8.3-29.43 7.35-28.05 6.93-24.95 6.5-21.85 6.5-16.6L6.5-16.6Q6.5-12.2 6.85-9.47 7.2-6.75 8.1-5.48 9-4.2 10.55-4.2ZM32.05 0.5L32.05 0.5Q29.05 0.5 27.25-0.33 25.45-1.15 24.55-2.6 23.65-4.05 23.35-5.95 23.05-7.85 23.05-10L23.05-10 23.05-34.1Q23.05-34.55 23.25-34.73 23.45-34.9 24.42-34.95 25.4-35 27.75-35L27.75-35 27.75-9.85Q27.75-8.45 27.9-7.33 28.05-6.2 28.5-5.38 28.95-4.55 29.8-4.13 30.65-3.7 32.05-3.7L32.05-3.7Q33.2-3.7 34.25-3.95 35.3-4.2 35.9-4.5L35.9-4.5 35.9-34.1Q35.9-34.55 36.12-34.73 36.35-34.9 37.3-34.95 38.25-35 40.55-35L40.55-35 40.55-1.35Q39.65-0.75 37.35-0.13 35.05 0.5 32.05 0.5ZM52.85 0.5L52.85 0.5Q50.4 0.5 48.7-0.3 47-1.1 45.92-3.15 44.85-5.2 44.35-8.72 43.85-12.25 43.85-17.7L43.85-17.7Q43.85-24.4 44.9-28.28 45.95-32.15 48.07-33.83 50.2-35.5 53.4-35.5L53.4-35.5Q55.85-35.5 57.55-34.65 59.25-33.8 60.3-31.8 61.35-29.8 61.82-26.4 62.3-23 62.3-17.85L62.3-17.85Q62.3-10.9 61.3-6.9 60.3-2.9 58.22-1.2 56.15 0.5 52.85 0.5ZM53.05-4.2L53.05-4.2Q54.7-4.2 55.6-5.55 56.5-6.9 56.9-9.9 57.3-12.9 57.3-17.75L57.3-17.75Q57.3-22.55 56.97-25.4 56.65-28.25 55.8-29.53 54.95-30.8 53.3-30.8L53.3-30.8Q51.75-30.8 50.8-29.43 49.85-28.05 49.42-24.95 49-21.85 49-16.6L49-16.6Q49-12.2 49.35-9.47 49.7-6.75 50.6-5.48 51.5-4.2 53.05-4.2ZM70.59 0L70.59 0 70.59-34.4Q70.59-34.4 70.72-34.48 70.84-34.55 71.49-34.55L71.49-34.55 74.29-34.55Q74.94-34.55 75.04-34.48 75.14-34.4 75.14-34.4L75.14-34.4 75.14-0.85Q75.14-0.45 74.94-0.28 74.74-0.1 73.79-0.05 72.84 0 70.59 0ZM81.04-30.7L64.04-30.7 64.04-34.1Q64.04-35 64.89-35L64.89-35 81.89-35 81.89-31.6Q81.89-31.1 81.72-30.9 81.54-30.7 81.04-30.7L81.04-30.7ZM96.09 0L84.34 0 84.34-34.1Q84.34-34.1 84.47-34.55 84.59-35 85.19-35L85.19-35 97.19-35Q97.19-33.15 97.17-32.3 97.14-31.45 96.97-31.18 96.79-30.9 96.34-30.9L96.34-30.9 88.89-30.9 88.89-4.1 96.94-4.1Q96.94-2.2 96.89-1.33 96.84-0.45 96.69-0.23 96.54 0 96.09 0L96.09 0ZM95.09-16.9L84.84-16.9 84.84-21.1 95.94-21.1Q95.94-18.5 95.84-17.7 95.74-16.9 95.09-16.9L95.09-16.9Z" fill="#471aa0" data-fill-palette-color="primary"></path></g></svg></g></svg></g></svg></g></svg></g><g><svg viewBox="0 0 211.75284492881505 211.75284492881505" height="211.75284492881505" width="211.75284492881505"><g><svg></svg></g><g id="icon-0"><svg viewBox="0 0 211.75284492881505 211.75284492881505" height="211.75284492881505" width="211.75284492881505"><g><path d="M0 105.876c0-58.474 47.402-105.876 105.876-105.876 58.474 0 105.876 47.402 105.877 105.876 0 58.474-47.402 105.876-105.877 105.877-58.474 0-105.876-47.402-105.876-105.877zM105.876 195.662c49.587 0 89.786-40.198 89.786-89.786 0-49.587-40.198-89.786-89.786-89.785-49.587 0-89.786 40.198-89.785 89.785 0 49.587 40.198 89.786 89.785 89.786z" data-fill-palette-color="accent" fill="#471aa0" stroke="transparent"></path></g><g transform="matrix(1,0,0,1,58.903343510616594,71.28802990473923)"><svg viewBox="0 0 93.94615790758186 69.1767851193366" height="69.1767851193366" width="93.94615790758186"><g><svg xmlns="http://www.w3.org/2000/svg" xmlns:xlink="http://www.w3.org/1999/xlink" version="1.1" x="0" y="0" viewBox="5.000242710113525 14.378999710083008 89.95376586914062 66.23700714111328" enable-background="new 0 0 100 100" xml:space="preserve" height="69.1767851193366" width="93.94615790758186" class="icon-c-0" data-fill-palette-color="accent" id="c-0"><g fill="#471aa0" data-fill-palette-color="accent"><path fill="#471aa0" d="M33.727 19.879c6.917 0 12.544 5.627 12.544 12.544 0 25.969-9.695 34.341-27.586 40.706-2.763 0.983-5.806 1.988-7.424 1.988-0.215 0-0.333-0.019-0.383-0.03-0.048-0.043-0.168-0.163-0.333-0.418-0.005-0.011-0.397-1.206 1.326-2.182 17.997-10.193 19.892-19.873 20.002-22.948 0.009-0.131 0.014-0.262 0.014-0.394-0.003-2.133-1.239-4.072-3.171-4.975-6.227-2.91-7.534-7.994-7.534-11.746C21.183 25.506 26.811 19.879 33.727 19.879M33.727 14.379c-9.966 0-18.044 8.079-18.044 18.044 0 6.726 3.13 13.189 10.705 16.729l-0.009 0.004c0 0 0.446 8.541-17.217 18.544-4.499 2.548-4.928 7.292-3.278 9.881 1.373 2.154 3.066 3.035 5.378 3.035 2.346 0 5.329-0.905 9.267-2.306 18.345-6.526 31.242-16.061 31.242-45.887C51.772 22.458 43.693 14.379 33.727 14.379L33.727 14.379z" data-fill-palette-color="accent"></path></g><g fill="#471aa0" data-fill-palette-color="accent"><path fill="#471aa0" d="M76.91 19.879c6.917 0 12.544 5.627 12.544 12.544 0 25.969-9.695 34.341-27.586 40.706-2.763 0.983-5.806 1.988-7.424 1.988-0.215 0-0.333-0.019-0.383-0.03-0.048-0.043-0.168-0.163-0.333-0.418-0.005-0.011-0.397-1.206 1.326-2.182 17.997-10.193 19.892-19.873 20.002-22.948 0.009-0.131 0.014-0.262 0.014-0.394-0.003-2.133-1.239-4.072-3.171-4.975-6.227-2.91-7.534-7.994-7.534-11.746C64.366 25.506 69.993 19.879 76.91 19.879M76.91 14.379c-9.966 0-18.044 8.079-18.044 18.044 0 6.726 3.13 13.189 10.705 16.729l-0.009 0.004c0 0 0.446 8.541-17.217 18.544-4.499 2.548-4.928 7.292-3.278 9.881 1.373 2.154 3.066 3.035 5.378 3.035 2.346 0 5.329-0.905 9.267-2.306 18.345-6.526 31.242-16.061 31.242-45.887C94.954 22.458 86.876 14.379 76.91 14.379L76.91 14.379z" data-fill-palette-color="accent"></path></g></svg></g></svg></g></svg></g></svg></g></svg></g><defs></defs></svg><rect width="395.52" height="121.1141862085929" fill="none" stroke="none" visibility="hidden"></rect></g></svg></g></svg>